<?xml version="1.0" standalone="no"?>
<!DOCTYPE svg PUBLIC "-//W3C//DTD SVG 20010904//EN"
 "http://www.w3.org/TR/2001/REC-SVG-20010904/DTD/svg10.dtd">
<svg version="1.0" xmlns="http://www.w3.org/2000/svg"
 width="150.000000pt" height="150.000000pt" viewBox="0 0 150.000000 150.000000"
 preserveAspectRatio="xMidYMid meet">

<g transform="translate(0.000000,150.000000) scale(0.100000,-0.100000)"
fill="#000000" stroke="none">
<path d="M560 750 c0 -153 2 -180 15 -180 13 0 15 27 15 180 0 153 -2 180 -15
180 -13 0 -15 -27 -15 -180z"/>
<path d="M680 915 c0 -8 7 -15 15 -15 12 0 15 -18 15 -100 0 -80 -3 -102 -15
-106 -8 -4 -15 -13 -15 -21 0 -11 11 -13 47 -11 46 3 76 28 34 28 -20 0 -21 6
-21 87 0 50 4 83 9 78 4 -6 36 -52 70 -103 85 -127 95 -124 99 31 1 67 7 117
12 117 6 0 10 7 10 15 0 11 -11 15 -40 15 -29 0 -40 -4 -40 -15 0 -8 4 -15 9
-15 5 0 11 -38 13 -85 2 -47 2 -85 1 -85 -1 0 -31 45 -67 100 -62 95 -67 100
-101 100 -24 0 -35 -5 -35 -15z"/>
<path d="M970 915 c0 -8 7 -15 15 -15 13 0 15 -22 15 -139 0 -148 -7 -170 -50
-156 -16 5 -20 2 -20 -14 0 -17 6 -21 33 -21 18 0 43 7 55 16 21 14 22 21 22
165 0 126 2 149 15 149 8 0 15 7 15 15 0 11 -12 15 -50 15 -38 0 -50 -4 -50
-15z"/>
<path d="M1090 915 c0 -8 6 -15 13 -15 8 0 24 -45 42 -117 28 -111 31 -118 55
-118 26 0 35 20 71 155 l12 45 13 -45 c7 -25 20 -71 29 -102 14 -49 20 -58 39
-58 20 0 26 10 46 88 13 48 27 102 32 120 5 17 15 32 23 32 8 0 15 7 15 15 0
11 -12 15 -50 15 -38 0 -50 -4 -50 -15 0 -8 7 -15 15 -15 8 0 15 -3 15 -7 0
-20 -36 -163 -41 -163 -3 0 -11 24 -19 53 -33 131 -40 147 -63 147 -20 0 -25
-10 -41 -71 -10 -38 -23 -87 -28 -107 l-11 -37 -18 75 c-22 93 -23 110 -4 110
8 0 15 7 15 15 0 12 -13 15 -55 15 -42 0 -55 -3 -55 -15z"/>
<path d="M118 885 c-7 -9 -19 -22 -26 -30 -11 -13 -10 -15 7 -15 11 0 27 7 36
16 9 9 17 15 18 13 2 -2 8 -16 15 -31 20 -48 92 -34 92 17 0 12 -5 26 -12 33
-15 15 -61 15 -76 0 -9 -9 -12 -9 -12 0 0 17 -27 15 -42 -3z"/>
<path d="M447 863 c-8 -14 -87 -202 -87 -207 0 -16 29 -3 35 14 9 28 19 25 32
-10 11 -28 10 -30 -13 -30 -13 0 -24 -4 -24 -10 0 -5 18 -10 40 -10 22 0 40 2
40 5 0 3 -12 28 -26 56 l-25 51 27 64 c19 45 24 68 17 75 -6 6 -13 7 -16 2z"/>
<path d="M78 770 c-54 -47 -73 -87 -64 -135 6 -31 11 -35 36 -35 22 0 30 5 30
18 1 23 37 102 47 102 4 -1 20 -19 35 -40 26 -37 31 -40 77 -40 59 0 81 7 81
26 0 10 -14 14 -53 14 l-53 0 -19 53 c-32 92 -49 97 -117 37z"/>
<path d="M295 620 c-4 -6 7 -10 25 -10 18 0 29 4 25 10 -3 6 -15 10 -25 10
-10 0 -22 -4 -25 -10z"/>
</g>
</svg>
