<?xml version="1.0" standalone="no"?>
<!DOCTYPE svg PUBLIC "-//W3C//DTD SVG 20010904//EN"
 "http://www.w3.org/TR/2001/REC-SVG-20010904/DTD/svg10.dtd">
<svg version="1.0" xmlns="http://www.w3.org/2000/svg"
 width="149.000000pt" height="149.000000pt" viewBox="0 0 149.000000 149.000000"
 preserveAspectRatio="xMidYMid meet">

<g transform="translate(0.000000,149.000000) scale(0.100000,-0.100000)"
fill="#000000" stroke="none">
<path d="M599 1476 c-148 -31 -269 -97 -378 -207 -118 -118 -181 -239 -209
-405 -14 -80 -14 -106 -3 -200 7 -59 22 -132 32 -161 79 -232 278 -415 519
-480 88 -24 281 -24 370 0 259 69 467 277 537 537 24 88 24 281 0 370 -68 257
-277 467 -532 535 -83 23 -254 28 -336 11z"/>
</g>
</svg>
